<svg xmlns="http://www.w3.org/2000/svg" version="1.1" xmlns:xlink="http://www.w3.org/1999/xlink" xmlns:svgjs="http://svgjs.dev/svgjs" width="1000" height="1000" viewBox="0 0 1000 1000"><rect width="1000" height="1000" fill="#046380"></rect><g transform="matrix(0.7,0,0,0.7,150.27602523659306,218.87146823529417)"><svg viewBox="0 0 317 255" data-background-color="#046380" preserveAspectRatio="xMidYMid meet" height="804" width="1000" xmlns="http://www.w3.org/2000/svg" xmlns:xlink="http://www.w3.org/1999/xlink"><g id="tight-bounds" transform="matrix(1,0,0,1,-0.12481857299803778,-0.12296447753908524)"><svg viewBox="0 0 317.2496643066406 255.24595642089844" height="255.24595642089844" width="317.2496643066406"><g><svg></svg></g><g><svg viewBox="0 0 317.2496643066406 255.24595642089844" height="255.24595642089844" width="317.2496643066406"><g transform="matrix(1,0,0,1,-39.13518142700195,4.0229644775390625)"><path xmlns="http://www.w3.org/2000/svg" d="M39.135 251.223v-4.023h249.759v-8.226h-249.759v-242.997h317.25v255.246zM340.858 235.696v-224.192h-286.196v224.192z" fill="#ffffff" fill-rule="nonzero" stroke="none" stroke-width="1" stroke-linecap="butt" stroke-linejoin="miter" stroke-miterlimit="10" stroke-dasharray="" stroke-dashoffset="0" font-family="none" font-weight="none" font-size="none" text-anchor="none" style="mix-blend-mode: normal" data-fill-palette-color="tertiary"></path><g><path xmlns="http://www.w3.org/2000/svg" d="M78.917 246.305v0-7.172l4.603-0.159c0.284 0 0.55 0.017 0.799 0.052 0.249 0.035 0.501 0.102 0.755 0.201 0.253 0.097 0.47 0.223 0.651 0.378 0.179 0.154 0.325 0.359 0.438 0.615 0.113 0.256 0.17 0.551 0.171 0.884v0c0 0.444-0.097 0.804-0.293 1.08-0.196 0.275-0.49 0.519-0.879 0.732v0c0.458 0.128 0.808 0.349 1.047 0.663 0.239 0.314 0.358 0.712 0.358 1.192v0c0 0.355-0.067 0.674-0.201 0.956-0.135 0.282-0.31 0.512-0.523 0.689-0.212 0.178-0.463 0.325-0.751 0.444-0.288 0.116-0.573 0.199-0.856 0.246-0.282 0.048-0.57 0.072-0.864 0.072v0c-0.172 0-0.429-0.004-0.771-0.011-0.343-0.006-0.602-0.009-0.774-0.008v0c-0.988 0-1.894 0.014-2.718 0.041v0c-0.118-0.188-0.182-0.486-0.192-0.895zM81.975 240.912v0c0 0.16 0.005 0.398 0.015 0.714 0.012 0.317 0.017 0.556 0.018 0.716v0c0 0.067 0.042 0.105 0.126 0.115v0c0.049-0.007 0.136-0.019 0.26-0.035 0.122-0.016 0.219-0.029 0.29-0.039 0.071-0.01 0.157-0.036 0.258-0.076 0.102-0.041 0.181-0.089 0.238-0.147 0.057-0.058 0.106-0.141 0.148-0.248 0.042-0.108 0.063-0.235 0.064-0.382v0c0-0.54-0.372-0.81-1.118-0.81v0c-0.15 0.025-0.237 0.05-0.262 0.076v0c-0.025 0.028-0.037 0.066-0.037 0.116zM82.071 244.782v0.192c0 0.262 0.014 0.393 0.042 0.393v0h0.172c0.138 0 0.258-0.004 0.358-0.013 0.102-0.009 0.212-0.031 0.329-0.066 0.116-0.036 0.21-0.085 0.282-0.146 0.071-0.063 0.132-0.151 0.181-0.264 0.049-0.113 0.074-0.249 0.074-0.406v0c0-0.089-0.009-0.17-0.026-0.245-0.017-0.074-0.046-0.138-0.085-0.192-0.039-0.054-0.078-0.1-0.116-0.139-0.036-0.038-0.089-0.071-0.159-0.099-0.07-0.026-0.127-0.047-0.17-0.063-0.045-0.016-0.112-0.029-0.201-0.039-0.089-0.012-0.152-0.019-0.19-0.022-0.039-0.004-0.107-0.009-0.203-0.013-0.096-0.006-0.156-0.009-0.181-0.009v0 0.203c-0.004 0.039-0.023 0.171-0.057 0.395-0.033 0.223-0.05 0.4-0.05 0.533zM87.239 246.635v-6.489c0-0.214 0.009-0.338 0.027-0.373v0c0.032-0.049 0.084-0.074 0.155-0.075v0h0.128c0.057 0 0.095 0.004 0.116 0.011v0h0.277c0.359 0 0.902-0.009 1.628-0.028 0.726-0.017 1.27-0.026 1.633-0.026v0h1.419c0.092 0.01 0.138 0.057 0.137 0.139v0 1.779c-0.003 0.022-0.009 0.041-0.017 0.057-0.009 0.016-0.016 0.026-0.022 0.031-0.006 0.006-0.023 0.018-0.05 0.037-0.029 0.02-0.049 0.036-0.059 0.046v0h-2.473v0.661h0.236c0.205 0 0.519-0.007 0.942-0.022 0.422-0.015 0.747-0.022 0.976-0.022v0c0.099 0 0.166 0.02 0.201 0.059 0.036 0.039 0.055 0.095 0.054 0.166v0c0 0.017-0.004 0.047-0.01 0.089-0.007 0.044-0.011 0.074-0.011 0.092v0 0.203c0 0.013 0.001 0.042 0.004 0.087 0.004 0.044 0.007 0.081 0.007 0.114v0 0.151c0 0.077 0.004 0.155 0.01 0.233 0.007 0.079 0.011 0.146 0.011 0.203v0 0.138c-0.019 0.044-0.033 0.073-0.043 0.087-0.01 0.013-0.028 0.02-0.053 0.019v0-0.01c-0.132 0-0.359 0.009-0.681 0.028-0.322 0.017-0.578 0.026-0.768 0.026v0h-0.853v0.681c0.029 0 0.072 0.002 0.128 0.007 0.057 0.003 0.099 0.004 0.127 0.004v0c0.16 0 0.397-0.005 0.709-0.015 0.313-0.01 0.538-0.015 0.677-0.016v0h0.681c0.185 0 0.303 0.021 0.354 0.064v0c0.017 0.02 0.031 0.041 0.041 0.063v0 1.705c0 0.076-0.014 0.133-0.041 0.172-0.029 0.038-0.083 0.059-0.162 0.063v0h-5.275zM96.308 246.827h-2.92v-7.002c0.004-0.028 0.033-0.053 0.087-0.076 0.052-0.023 0.084-0.04 0.094-0.051v0h2.868v6.937c-0.017 0.076-0.034 0.127-0.05 0.152-0.016 0.026-0.042 0.039-0.079 0.04zM102.692 239.698h1.823c0.042 0.013 0.075 0.074 0.098 0.184 0.023 0.108 0.037 0.244 0.041 0.408 0.003 0.163 0.003 0.319 0 0.467-0.004 0.15-0.009 0.303-0.015 0.458-0.004 0.157-0.007 0.255-0.007 0.295v0c-0.007 0.141-0.011 0.34-0.01 0.596v0 0.565c0 0.249 0.004 0.59 0.01 1.024 0.007 0.434 0.011 0.753 0.011 0.958v0 1.94c-0.015 0.121-0.114 0.181-0.299 0.181v0h-2.983c-0.064-0.015-0.146-0.164-0.245-0.447v0c-0.068-0.189-0.182-0.498-0.34-0.928-0.157-0.429-0.292-0.807-0.406-1.132-0.113-0.324-0.217-0.639-0.31-0.945v0-0.033 0.033c-0.01 0.234-0.021 0.583-0.033 1.047-0.01 0.463-0.02 0.81-0.03 1.041v0 1.087c0 0.106-0.012 0.18-0.037 0.221-0.025 0.041-0.091 0.073-0.199 0.098v0h-2.194l-0.235-0.234c0.017-0.589 0.032-1.513 0.043-2.772 0.01-1.257 0.024-2.188 0.042-2.791v0-1.15c0.036-0.128 0.079-0.192 0.129-0.192v0 0.021c0.242 0 0.621-0.007 1.137-0.021 0.517-0.015 0.904-0.022 1.163-0.022v0h0.897c0.003 0 0.008 0.002 0.015 0.006v0c0.064 0.025 0.1 0.053 0.107 0.085v0l0.005 0.038c0.128 0.345 0.258 0.701 0.388 1.069 0.132 0.37 0.289 0.816 0.469 1.34 0.182 0.525 0.308 0.887 0.38 1.085v0-0.788c0.07-1.25 0.105-2.138 0.105-2.665v0c0-0.057 0.039-0.092 0.118-0.107 0.079-0.013 0.199-0.02 0.362-0.02zM112.784 245.858v0.469c-0.028 0.131-0.268 0.249-0.722 0.354-0.453 0.105-0.904 0.178-1.353 0.22-0.45 0.044-0.805 0.065-1.067 0.065v0c-0.278 0-0.519-0.007-0.723-0.021-0.204-0.015-0.447-0.046-0.731-0.094-0.282-0.048-0.553-0.13-0.812-0.245-0.259-0.115-0.502-0.262-0.729-0.441v0l-0.225-0.189c-0.06-0.044-0.12-0.108-0.181-0.193v0l-0.17-0.224c-0.426-0.671-0.639-1.452-0.64-2.344v0c0-0.885 0.224-1.638 0.673-2.259v0l0.148-0.182v-0.074 0.009c0.639-0.816 1.694-1.224 3.165-1.224v0c0.214 0 0.446 0.019 0.696 0.056 0.25 0.036 0.517 0.095 0.799 0.175 0.282 0.08 0.549 0.199 0.801 0.356 0.253 0.156 0.454 0.337 0.602 0.543v0c0.076 0.099 0.132 0.21 0.17 0.332 0.039 0.122 0.076 0.28 0.112 0.473 0.033 0.194 0.06 0.337 0.081 0.43v0c0 0.121-0.113 0.181-0.341 0.182v0h-0.436c-0.099 0-0.303-0.005-0.612-0.016-0.307-0.012-0.551-0.017-0.731-0.017v0h-0.587c-0.049-0.017-0.095-0.073-0.135-0.168-0.041-0.093-0.067-0.147-0.079-0.162v0 0.011c-0.063-0.143-0.204-0.214-0.425-0.214v0c-0.146 0-0.272 0.031-0.38 0.094-0.109 0.063-0.192 0.139-0.249 0.229-0.057 0.09-0.102 0.204-0.135 0.341-0.033 0.137-0.055 0.262-0.064 0.375-0.01 0.113-0.015 0.243-0.015 0.389v0c0 0.051 0.002 0.121 0.007 0.209 0.003 0.089 0.004 0.147 0.004 0.175v0 0.406c0 0.128 0.004 0.24 0.013 0.336 0.01 0.096 0.033 0.204 0.068 0.325 0.035 0.121 0.084 0.22 0.148 0.297 0.064 0.079 0.156 0.145 0.277 0.199 0.121 0.052 0.265 0.079 0.433 0.078v0c0.348 0 0.621-0.032 0.82-0.096v0-0.233c0-0.029-0.001-0.066-0.004-0.112-0.004-0.047-0.007-0.084-0.007-0.113v0c0-0.007 0.002-0.025 0.007-0.053 0.003-0.029 0.004-0.054 0.004-0.074v0h-0.203c-0.028 0-0.063 0.001-0.107 0.005-0.042 0.004-0.071 0.007-0.085 0.006v0h-0.447l-0.181-0.203c-0.007-0.036-0.011-0.089-0.011-0.159v0-0.332c0-0.042 0.002-0.108 0.006-0.196 0.003-0.089 0.004-0.162 0.005-0.219v0-0.15c0-0.006 0.002-0.022 0.006-0.048 0.003-0.025 0.004-0.047 0.004-0.068v0-0.044c0-0.064 0.012-0.116 0.038-0.154 0.025-0.038 0.073-0.079 0.144-0.123v0h0.502c0.035 0 0.088 0.007 0.159 0.022v0h0.48c0.355 0.015 0.618 0.022 0.788 0.022v0h0.511c0.54 0 0.86 0.049 0.96 0.148v0c0 0.34-0.007 0.859-0.022 1.557-0.015 0.697-0.022 1.216-0.022 1.556zM116.951 240.934v0.011c-0.013-0.071-0.02-0.274-0.02-0.607v0c0-0.384 0.035-0.612 0.105-0.683v0h2.901v4.476c0 0.461 0.135 0.692 0.404 0.692v0c0.113 0 0.207-0.05 0.281-0.15 0.076-0.102 0.113-0.222 0.114-0.361v0-0.787c0.02-1.557 0.031-2.343 0.03-2.358v0c0-0.617-0.007-1.064-0.019-1.342v0c0-0.099 0.049-0.17 0.148-0.212v0h2.962v0.83c-0.045 1.347-0.073 2.215-0.085 2.601v0 0.33c0 0.042-0.001 0.099-0.005 0.17-0.004 0.071-0.007 0.121-0.006 0.151v0c0 0.121 0.004 0.206 0.011 0.255v0 0.415c0 0.495-0.049 0.85-0.149 1.067v0 0.02c-0.113 0.266-0.277 0.497-0.491 0.692-0.212 0.194-0.455 0.344-0.729 0.451-0.274 0.108-0.554 0.186-0.842 0.234-0.288 0.048-0.591 0.072-0.91 0.072v0c-0.1 0-0.175-0.01-0.225-0.031v0h-0.127c0 0.035-0.054 0.052-0.161 0.053v0 0.011c-0.077 0.003-0.304-0.015-0.681-0.053v0h-0.245c-0.224-0.025-0.44-0.075-0.648-0.15-0.208-0.074-0.41-0.18-0.605-0.317-0.195-0.137-0.367-0.299-0.515-0.486-0.147-0.189-0.267-0.418-0.36-0.688-0.092-0.271-0.143-0.566-0.153-0.886v0c0.003-0.185 0.004-0.44 0.003-0.766-0.001-0.327-0.001-0.625 0.002-0.893 0.003-0.268 0.012-0.528 0.026-0.781v0-0.149c0-0.017 0.002-0.046 0.006-0.085 0.003-0.039 0.004-0.068 0.005-0.085v0c0-0.054-0.004-0.134-0.011-0.24-0.007-0.106-0.011-0.186-0.011-0.24v0zM127.342 246.816h-2.558l-0.111-3.549c0-0.244 0.004-0.521 0.011-0.829 0.007-0.31 0.016-0.589 0.026-0.839 0.01-0.249 0.02-0.531 0.029-0.846 0.01-0.316 0.015-0.603 0.015-0.862v0c0-0.071 0.024-0.117 0.072-0.138 0.048-0.019 0.108-0.025 0.181-0.017 0.073 0.007 0.155 0.001 0.247-0.018v0h3.815c0.217 0 0.434 0.028 0.65 0.083 0.217 0.055 0.429 0.144 0.638 0.266 0.208 0.124 0.391 0.273 0.547 0.448 0.159 0.176 0.287 0.396 0.384 0.659 0.097 0.263 0.146 0.553 0.147 0.869v0c0 0.419-0.089 0.791-0.267 1.115-0.178 0.326-0.444 0.632-0.798 0.919v0c-0.437 0.228-0.963 0.36-1.578 0.395v0h-0.171c-0.143 0.029-0.284 0.044-0.425 0.043v0h-0.428c-0.02 0-0.038 0.004-0.052 0.011v0c0 0.93 0.015 1.633 0.043 2.109v0c-0.019 0.071-0.057 0.119-0.115 0.144-0.058 0.025-0.159 0.037-0.302 0.037zM127.449 242.745v0 0.096c0.003 0.003 0.027 0.015 0.072 0.035 0.044 0.019 0.065 0.032 0.066 0.04v0 0.01c-0.006 0-0.009-0.007-0.009-0.021v0c0.006 0.007 0.027 0.011 0.063 0.011v0c0.316 0 0.583-0.071 0.801-0.212 0.218-0.143 0.327-0.363 0.328-0.661v0c0-0.135-0.023-0.251-0.068-0.348-0.047-0.096-0.103-0.17-0.168-0.22-0.065-0.052-0.154-0.092-0.266-0.118-0.112-0.026-0.215-0.043-0.308-0.05-0.092-0.007-0.209-0.011-0.351-0.011v0c-0.003 0.003-0.017 0.015-0.042 0.037-0.025 0.022-0.043 0.038-0.054 0.048v0 0.555c-0.042 0.34-0.063 0.61-0.064 0.809zM134.898 243.492v-0.321l-0.01-0.116c0.068-0.579 0.132-0.982 0.192-1.209v0c0.138-0.534 0.387-0.98 0.746-1.338v0l0.127-0.129c0.172-0.199 0.431-0.37 0.779-0.51v0h0.203c0.348-0.146 0.92-0.281 1.715-0.406v0c0.198 0 0.407 0.015 0.627 0.046 0.218 0.031 0.461 0.08 0.727 0.148 0.266 0.07 0.523 0.18 0.77 0.332 0.246 0.15 0.451 0.33 0.616 0.539v0 0.15c0.582 0.728 0.873 1.545 0.873 2.451v0c0 1.02-0.234 1.851-0.703 2.493v0l-0.214 0.268c-0.163 0.202-0.366 0.376-0.609 0.522-0.244 0.146-0.503 0.256-0.777 0.332-0.274 0.077-0.535 0.132-0.786 0.164-0.25 0.032-0.5 0.048-0.748 0.048v0c-0.365 0-0.714-0.044-1.048-0.131-0.332-0.087-0.642-0.223-0.932-0.409-0.29-0.185-0.544-0.412-0.764-0.681-0.22-0.271-0.398-0.597-0.535-0.977-0.137-0.383-0.22-0.805-0.249-1.266zM137.83 242.981v0.234c0 1.25 0.238 1.875 0.713 1.874v0c0.131 0 0.245-0.025 0.343-0.074 0.099-0.049 0.178-0.126 0.238-0.229 0.061-0.103 0.111-0.208 0.148-0.314 0.039-0.106 0.067-0.239 0.083-0.4 0.016-0.16 0.027-0.3 0.033-0.421 0.006-0.121 0.009-0.266 0.009-0.436v0-0.192c0-0.185-0.011-0.362-0.033-0.533-0.022-0.17-0.058-0.342-0.109-0.515-0.052-0.172-0.132-0.31-0.238-0.415-0.106-0.105-0.236-0.157-0.388-0.157v0c-0.533 0-0.799 0.526-0.799 1.578zM148.262 239.698h1.823c0.042 0.013 0.075 0.074 0.098 0.184 0.023 0.108 0.037 0.244 0.042 0.408 0.003 0.163 0.003 0.319 0 0.467-0.004 0.15-0.009 0.303-0.016 0.458-0.004 0.157-0.007 0.255-0.006 0.295v0c-0.007 0.141-0.011 0.34-0.011 0.596v0 0.565c0 0.249 0.004 0.59 0.011 1.024 0.007 0.434 0.011 0.753 0.011 0.958v0 1.94c-0.015 0.121-0.114 0.181-0.299 0.181v0h-2.984c-0.064-0.015-0.146-0.164-0.247-0.447v0c-0.067-0.189-0.18-0.498-0.338-0.928-0.157-0.429-0.292-0.807-0.406-1.132-0.115-0.324-0.218-0.639-0.31-0.945v0-0.033 0.033c-0.01 0.234-0.021 0.583-0.032 1.047-0.01 0.463-0.02 0.81-0.031 1.041v0 1.087c0 0.106-0.012 0.18-0.037 0.221-0.025 0.041-0.091 0.073-0.199 0.098v0h-2.195l-0.234-0.234c0.017-0.589 0.032-1.513 0.044-2.772 0.01-1.257 0.024-2.188 0.041-2.791v0-1.15c0.035-0.128 0.078-0.192 0.129-0.192v0 0.021c0.242 0 0.621-0.007 1.137-0.021 0.517-0.015 0.904-0.022 1.163-0.022v0h0.897c0.003 0 0.008 0.002 0.016 0.006v0c0.064 0.025 0.1 0.053 0.107 0.085v0l0.004 0.038c0.128 0.345 0.258 0.701 0.389 1.069 0.132 0.37 0.289 0.816 0.469 1.34 0.182 0.525 0.308 0.887 0.38 1.085v0-0.788c0.07-1.25 0.105-2.138 0.104-2.665v0c0-0.057 0.039-0.092 0.118-0.107 0.079-0.013 0.199-0.02 0.362-0.02zM154.007 241.637v0-1.919h6.203c0.057 0.012 0.092 0.034 0.107 0.068 0.013 0.033 0.02 0.082 0.02 0.146v0 1.705c-0.007 0.086-0.057 0.129-0.149 0.128v0h-1.512v4.902c0 0.003-0.002 0.012-0.007 0.027-0.003 0.015-0.004 0.023-0.004 0.026 0 0.004-0.002 0.012-0.007 0.022-0.003 0.01-0.007 0.017-0.011 0.021-0.003 0.003-0.007 0.009-0.011 0.018-0.003 0.01-0.007 0.016-0.013 0.017-0.004 0.001-0.011 0.005-0.019 0.011-0.009 0.004-0.018 0.009-0.029 0.013-0.009 0.003-0.019 0.005-0.03 0.007-0.013 0.003-0.027 0.006-0.042 0.009v0h-0.34c-0.454 0-0.681-0.014-0.681-0.042v0c-0.029 0-0.072 0.001-0.129 0.005-0.057 0.003-0.099 0.004-0.127 0.004v0h-0.427c-0.081 0-0.198 0.002-0.35 0.007-0.15 0.003-0.268 0.004-0.353 0.004v0h-0.299l-0.212-0.149v-1.15c0.003-0.207 0.017-0.647 0.044-1.322 0.028-0.675 0.041-1.208 0.041-1.598v0-0.14c0-0.028 0.001-0.072 0.005-0.133 0.004-0.06 0.007-0.104 0.006-0.133v0c0-0.032-0.002-0.097-0.006-0.194-0.003-0.097-0.004-0.161-0.005-0.19v0h-1.333c-0.077 0-0.151-0.013-0.223-0.039-0.071-0.026-0.107-0.07-0.107-0.131zM167.648 239.921v0 6.554c0 0.074-0.003 0.134-0.008 0.179-0.004 0.044-0.02 0.085-0.046 0.125-0.025 0.039-0.06 0.059-0.105 0.059v0h-2.717v-0.118c-0.007-0.006-0.035-0.022-0.083-0.048-0.048-0.025-0.078-0.047-0.09-0.068v0-2.154c0-0.077-0.006-0.121-0.017-0.133-0.013-0.01-0.064-0.015-0.153-0.015v0h-0.362c-0.084 0-0.183 0.007-0.297 0.021v0 2.301c-0.015 0.064-0.042 0.105-0.083 0.124-0.041 0.017-0.103 0.026-0.186 0.026v0h-0.244c-0.167 0-0.429 0.004-0.786 0.011-0.356 0.007-0.627 0.011-0.812 0.011v0h-0.703c-0.153 0-0.229-0.086-0.229-0.257v0l0.031-6.714c0-0.017 0.005-0.033 0.015-0.046 0.012-0.012 0.033-0.029 0.066-0.052 0.032-0.023 0.049-0.036 0.052-0.039v0h2.868v2.291h0.925v-2.346h2.72c0.084 0 0.146 0.02 0.185 0.059 0.039 0.039 0.059 0.116 0.059 0.229zM168.65 246.635v-6.489c0-0.214 0.009-0.338 0.026-0.373v0c0.032-0.049 0.084-0.074 0.155-0.075v0h0.127c0.058 0 0.097 0.004 0.118 0.011v0h0.277c0.359 0 0.902-0.009 1.628-0.028 0.726-0.017 1.27-0.026 1.633-0.026v0h1.418c0.092 0.01 0.138 0.057 0.138 0.139v0 1.779c-0.003 0.022-0.009 0.041-0.018 0.057-0.009 0.016-0.016 0.026-0.021 0.031-0.006 0.006-0.023 0.018-0.051 0.037-0.029 0.02-0.049 0.036-0.059 0.046v0h-2.472v0.661h0.233c0.207 0 0.522-0.007 0.945-0.022 0.422-0.015 0.746-0.022 0.974-0.022v0c0.1 0 0.168 0.02 0.203 0.059 0.036 0.039 0.055 0.095 0.054 0.166v0c0 0.017-0.004 0.047-0.011 0.089-0.007 0.044-0.011 0.074-0.011 0.092v0 0.203c0 0.013 0.001 0.042 0.005 0.087 0.004 0.044 0.007 0.081 0.006 0.114v0 0.151c0 0.077 0.004 0.155 0.011 0.233 0.006 0.079 0.009 0.146 0.009 0.203v0 0.138c-0.017 0.044-0.031 0.073-0.042 0.087-0.01 0.013-0.028 0.02-0.054 0.019v0-0.01c-0.131 0-0.357 0.009-0.679 0.028-0.322 0.017-0.578 0.026-0.77 0.026v0h-0.852v0.681c0.028 0 0.07 0.002 0.127 0.007 0.057 0.003 0.1 0.004 0.129 0.004v0c0.16 0 0.397-0.005 0.709-0.015 0.313-0.01 0.538-0.015 0.677-0.016v0h0.681c0.185 0 0.302 0.021 0.351 0.064v0c0.019 0.02 0.033 0.041 0.044 0.063v0 1.705c0 0.076-0.015 0.133-0.044 0.172-0.028 0.038-0.081 0.059-0.159 0.063v0h-5.276zM178.188 246.816v-7.118h0.991c0.306 0 0.794-0.007 1.464-0.021 0.672-0.015 1.175-0.022 1.509-0.022v0c0.288 0 0.557 0.016 0.807 0.048 0.25 0.032 0.498 0.091 0.742 0.177 0.243 0.084 0.45 0.193 0.622 0.325 0.173 0.131 0.313 0.304 0.419 0.519 0.106 0.214 0.159 0.461 0.16 0.742v0c0 0.387-0.09 0.717-0.271 0.991-0.182 0.274-0.461 0.505-0.838 0.694v0c0.15 0.064 0.28 0.147 0.391 0.249 0.109 0.103 0.194 0.192 0.253 0.266 0.058 0.076 0.115 0.202 0.17 0.378 0.055 0.175 0.088 0.29 0.098 0.345 0.01 0.055 0.033 0.191 0.07 0.408v0c0.01 0.049 0.017 0.087 0.02 0.111v0c0.015 0.143 0.075 0.403 0.181 0.782 0.108 0.378 0.162 0.669 0.161 0.87v0c0 0.128-0.039 0.192-0.117 0.193v0c-0.214 0-0.536 0.001-0.967 0.004-0.432 0.004-0.753 0.007-0.963 0.006v0c-0.084-0.007-0.212-0.011-0.384-0.01v0h-0.362c-0.071-0.022-0.14-0.132-0.208-0.33-0.067-0.199-0.115-0.423-0.144-0.672v0l-0.118-0.95c-0.02-0.077-0.037-0.132-0.05-0.166-0.012-0.035-0.033-0.076-0.065-0.124-0.032-0.048-0.076-0.081-0.131-0.098-0.055-0.017-0.125-0.026-0.21-0.026v0h-0.246v2.132c0 0.01 0 0.027 0 0.05 0 0.023 0 0.039 0 0.048 0 0.009 0 0.022 0 0.04 0 0.017-0.001 0.031-0.005 0.039-0.004 0.01-0.008 0.022-0.011 0.035-0.004 0.015-0.009 0.025-0.013 0.03-0.006 0.004-0.013 0.011-0.022 0.02-0.009 0.01-0.02 0.017-0.032 0.02-0.012 0.003-0.025 0.007-0.042 0.01-0.016 0.003-0.035 0.004-0.057 0.005v0zM181.204 242.512v0c0.007 0.007 0.017 0.022 0.031 0.043 0.015 0.023 0.029 0.042 0.044 0.057 0.015 0.015 0.029 0.023 0.043 0.026v0c0.106 0 0.212-0.012 0.319-0.035 0.106-0.022 0.215-0.06 0.327-0.113 0.112-0.054 0.203-0.135 0.273-0.244 0.068-0.111 0.103-0.242 0.103-0.396v0c0-0.37-0.355-0.554-1.065-0.554v0c-0.071 0.017-0.107 0.046-0.107 0.085v0 0.203c0 0.103 0.006 0.258 0.017 0.463 0.01 0.207 0.015 0.362 0.015 0.465zM188.472 246.827h-2.92v-7.002c0.003-0.028 0.031-0.053 0.085-0.076 0.054-0.023 0.086-0.04 0.096-0.051v0h2.868v6.937c-0.019 0.076-0.036 0.127-0.052 0.152-0.016 0.026-0.041 0.039-0.077 0.04zM196.699 245.858v0.469c-0.028 0.131-0.268 0.249-0.721 0.354-0.454 0.105-0.905 0.178-1.353 0.22-0.45 0.044-0.806 0.065-1.069 0.065v0c-0.276 0-0.517-0.007-0.723-0.021-0.204-0.015-0.447-0.046-0.729-0.094-0.282-0.048-0.554-0.13-0.814-0.245-0.259-0.115-0.502-0.262-0.729-0.441v0l-0.225-0.189c-0.06-0.044-0.12-0.108-0.181-0.193v0l-0.17-0.224c-0.426-0.671-0.639-1.452-0.64-2.344v0c0-0.885 0.224-1.638 0.673-2.259v0l0.148-0.182v-0.074 0.009c0.64-0.816 1.695-1.224 3.165-1.224v0c0.214 0 0.446 0.019 0.696 0.056 0.25 0.036 0.517 0.095 0.799 0.175 0.282 0.08 0.55 0.199 0.803 0.356 0.252 0.156 0.453 0.337 0.602 0.543v0c0.074 0.099 0.131 0.21 0.171 0.332 0.039 0.122 0.076 0.28 0.109 0.473 0.033 0.194 0.061 0.337 0.083 0.43v0c0 0.121-0.114 0.181-0.343 0.182v0h-0.436c-0.099 0-0.302-0.005-0.609-0.016-0.308-0.012-0.553-0.017-0.734-0.017v0h-0.587c-0.049-0.017-0.095-0.073-0.135-0.168-0.041-0.093-0.066-0.147-0.077-0.162v0 0.011c-0.064-0.143-0.207-0.214-0.427-0.214v0c-0.146 0-0.272 0.031-0.38 0.094-0.109 0.063-0.192 0.139-0.249 0.229-0.057 0.09-0.102 0.204-0.135 0.341-0.033 0.137-0.055 0.262-0.064 0.375-0.009 0.113-0.013 0.243-0.013 0.389v0c0 0.051 0.001 0.121 0.005 0.209 0.004 0.089 0.007 0.147 0.006 0.175v0 0.406c0 0.128 0.004 0.24 0.013 0.336 0.009 0.096 0.031 0.204 0.066 0.325 0.036 0.121 0.087 0.22 0.15 0.297 0.063 0.079 0.154 0.145 0.275 0.199 0.122 0.052 0.266 0.079 0.433 0.078v0c0.349 0 0.623-0.032 0.82-0.096v0-0.233c0-0.029-0.001-0.066-0.004-0.112-0.004-0.047-0.007-0.084-0.007-0.113v0c0-0.007 0.002-0.025 0.007-0.053 0.003-0.029 0.004-0.054 0.004-0.074v0h-0.203c-0.028 0-0.063 0.001-0.104 0.005-0.044 0.004-0.072 0.007-0.086 0.006v0h-0.449l-0.181-0.203c-0.006-0.036-0.009-0.089-0.009-0.159v0-0.332c0-0.042 0.001-0.108 0.004-0.196 0.003-0.089 0.004-0.162 0.005-0.219v0-0.15c0-0.006 0.002-0.022 0.006-0.048 0.003-0.025 0.004-0.047 0.005-0.068v0-0.044c0-0.064 0.012-0.116 0.037-0.154 0.026-0.038 0.074-0.079 0.144-0.123v0h0.502c0.035 0 0.088 0.007 0.159 0.022v0h0.48c0.355 0.015 0.618 0.022 0.788 0.022v0h0.513c0.54 0 0.859 0.049 0.958 0.148v0c0 0.34-0.007 0.859-0.022 1.557-0.015 0.697-0.022 1.216-0.021 1.556zM204.49 239.921v0 6.554c0 0.074-0.003 0.134-0.008 0.179-0.006 0.044-0.021 0.085-0.046 0.125-0.025 0.039-0.06 0.059-0.105 0.059v0h-2.719v-0.118c-0.006-0.006-0.033-0.022-0.081-0.048-0.048-0.025-0.078-0.047-0.09-0.068v0-2.154c0-0.077-0.006-0.121-0.017-0.133-0.013-0.01-0.064-0.015-0.153-0.015v0h-0.362c-0.084 0-0.184 0.007-0.299 0.021v0 2.301c-0.013 0.064-0.04 0.105-0.081 0.124-0.041 0.017-0.103 0.026-0.186 0.026v0h-0.244c-0.167 0-0.429 0.004-0.786 0.011-0.356 0.007-0.627 0.011-0.812 0.011v0h-0.705c-0.153 0-0.229-0.086-0.229-0.257v0l0.033-6.714c0-0.017 0.005-0.033 0.015-0.046 0.012-0.012 0.033-0.029 0.066-0.052 0.032-0.023 0.049-0.036 0.052-0.039v0h2.868v2.291h0.925v-2.346h2.718c0.086 0 0.148 0.02 0.187 0.059 0.039 0.039 0.059 0.116 0.059 0.229zM204.979 241.637v0-1.919h6.203c0.057 0.012 0.092 0.034 0.107 0.068 0.015 0.033 0.022 0.082 0.022 0.146v0 1.705c-0.007 0.086-0.057 0.129-0.151 0.128v0h-1.512v4.902c0 0.003-0.001 0.012-0.005 0.027-0.004 0.015-0.007 0.023-0.006 0.026 0 0.004-0.001 0.012-0.004 0.022-0.004 0.01-0.008 0.017-0.011 0.021-0.004 0.003-0.008 0.009-0.011 0.018-0.003 0.01-0.007 0.016-0.013 0.017-0.006 0.001-0.013 0.005-0.022 0.011-0.009 0.004-0.017 0.009-0.026 0.013-0.009 0.003-0.02 0.005-0.033 0.007-0.012 0.003-0.025 0.006-0.039 0.009v0h-0.341c-0.455 0-0.683-0.014-0.683-0.042v0c-0.028 0-0.07 0.001-0.127 0.005-0.057 0.003-0.1 0.004-0.128 0.004v0h-0.426c-0.081 0-0.198 0.002-0.349 0.007-0.151 0.003-0.27 0.004-0.356 0.004v0h-0.297l-0.214-0.149v-1.15c0.003-0.207 0.018-0.647 0.046-1.322 0.026-0.675 0.039-1.208 0.039-1.598v0-0.14c0-0.028 0.002-0.072 0.007-0.133 0.003-0.06 0.004-0.104 0.004-0.133v0c0-0.032-0.001-0.097-0.004-0.194-0.004-0.097-0.007-0.161-0.007-0.19v0h-1.331c-0.079 0-0.154-0.013-0.225-0.039-0.071-0.026-0.107-0.07-0.107-0.131zM215.157 246.816l-0.138-0.234v-6.757c0-0.057 0.017-0.098 0.053-0.124 0.036-0.026 0.07-0.041 0.1-0.044 0.029-0.001 0.084-0.002 0.166-0.002v0h5.031c0.029 0 0.052 0.004 0.07 0.013 0.017 0.009 0.031 0.017 0.041 0.026 0.012 0.01 0.019 0.025 0.022 0.044 0.004 0.019 0.007 0.034 0.009 0.046 0.001 0.01 0.001 0.026 0 0.048-0.001 0.02-0.002 0.033-0.003 0.037v0 1.811h-2.494v0.192c0 0.042 0.007 0.156 0.022 0.341v0h0.499c0.051-0.003 0.141-0.015 0.271-0.035 0.13-0.019 0.231-0.028 0.306-0.029v0h0.436c0.1 0 0.175-0.004 0.225-0.01v0c0.146 0 0.279 0.017 0.399 0.052 0.121 0.036 0.186 0.076 0.197 0.118v0 0.31c0 0.067-0.004 0.17-0.011 0.31-0.007 0.141-0.011 0.247-0.011 0.318v0 0.478c0.007 0.029 0.011 0.079 0.011 0.151v0 0.212c-0.013 0.113-0.123 0.17-0.33 0.17v0h-0.34c-0.121 0-0.294 0.004-0.52 0.011-0.226 0.007-0.401 0.011-0.526 0.011v0h-0.596v2.536zM220.657 243.492v-0.321l-0.011-0.116c0.068-0.579 0.132-0.982 0.192-1.209v0c0.138-0.534 0.387-0.98 0.746-1.338v0l0.127-0.129c0.172-0.199 0.431-0.37 0.779-0.51v0h0.203c0.348-0.146 0.92-0.281 1.716-0.406v0c0.198 0 0.407 0.015 0.626 0.046 0.218 0.031 0.461 0.08 0.727 0.148 0.266 0.07 0.523 0.18 0.77 0.332 0.246 0.15 0.451 0.33 0.616 0.539v0 0.15c0.582 0.728 0.873 1.545 0.873 2.451v0c0 1.02-0.234 1.851-0.703 2.493v0l-0.214 0.268c-0.163 0.202-0.366 0.376-0.609 0.522-0.244 0.146-0.503 0.256-0.777 0.332-0.274 0.077-0.535 0.132-0.785 0.164-0.25 0.032-0.5 0.048-0.749 0.048v0c-0.365 0-0.714-0.044-1.048-0.131-0.332-0.087-0.642-0.223-0.932-0.409-0.29-0.185-0.544-0.412-0.764-0.681-0.22-0.271-0.398-0.597-0.534-0.977-0.137-0.383-0.22-0.805-0.249-1.266zM223.588 242.981v0.234c0 1.25 0.238 1.875 0.714 1.874v0c0.131 0 0.245-0.025 0.342-0.074 0.099-0.049 0.178-0.126 0.238-0.229 0.061-0.103 0.111-0.208 0.149-0.314 0.039-0.106 0.067-0.239 0.083-0.4 0.016-0.16 0.027-0.3 0.032-0.421 0.006-0.121 0.009-0.266 0.009-0.436v0-0.192c0-0.185-0.011-0.362-0.033-0.533-0.022-0.17-0.058-0.342-0.109-0.515-0.052-0.172-0.132-0.31-0.238-0.415-0.106-0.105-0.236-0.157-0.388-0.157v0c-0.533 0-0.799 0.526-0.799 1.578zM228.405 243.492v-0.321l-0.011-0.116c0.067-0.579 0.131-0.982 0.192-1.209v0c0.138-0.534 0.387-0.98 0.747-1.338v0l0.126-0.129c0.17-0.199 0.43-0.37 0.779-0.51v0h0.201c0.349-0.146 0.922-0.281 1.718-0.406v0c0.198 0 0.406 0.015 0.624 0.046 0.22 0.031 0.463 0.08 0.729 0.148 0.266 0.07 0.522 0.18 0.768 0.332 0.247 0.15 0.453 0.33 0.616 0.539v0 0.15c0.583 0.728 0.875 1.545 0.875 2.451v0c0 1.02-0.234 1.851-0.703 2.493v0l-0.214 0.268c-0.163 0.202-0.367 0.376-0.611 0.522-0.243 0.146-0.501 0.256-0.775 0.332-0.274 0.077-0.535 0.132-0.785 0.164-0.25 0.032-0.5 0.048-0.749 0.048v0c-0.365 0-0.714-0.044-1.048-0.131-0.332-0.087-0.642-0.223-0.932-0.409-0.29-0.185-0.544-0.412-0.763-0.681-0.221-0.271-0.4-0.597-0.537-0.977-0.137-0.383-0.219-0.805-0.247-1.266zM231.336 242.981v0.234c0 1.25 0.238 1.875 0.714 1.874v0c0.131 0 0.245-0.025 0.343-0.074 0.097-0.049 0.177-0.126 0.238-0.229 0.06-0.103 0.109-0.208 0.148-0.314 0.039-0.106 0.067-0.239 0.083-0.4 0.016-0.16 0.027-0.3 0.033-0.421 0.004-0.121 0.007-0.266 0.006-0.436v0-0.192c0-0.185-0.01-0.362-0.03-0.533-0.022-0.17-0.058-0.342-0.11-0.515-0.052-0.172-0.132-0.31-0.237-0.415-0.106-0.105-0.236-0.157-0.389-0.157v0c-0.533 0-0.799 0.526-0.799 1.578zM235.983 241.637v0-1.919h6.201c0.057 0.012 0.092 0.034 0.107 0.068 0.015 0.033 0.022 0.082 0.021 0.146v0 1.705c-0.007 0.086-0.057 0.129-0.148 0.128v0h-1.515v4.902c0 0.003-0.001 0.012-0.004 0.027-0.004 0.015-0.007 0.023-0.007 0.026 0 0.004-0.001 0.012-0.004 0.022-0.004 0.01-0.008 0.017-0.011 0.021-0.003 0.003-0.007 0.009-0.011 0.018-0.003 0.01-0.007 0.016-0.013 0.017-0.006 0.001-0.013 0.005-0.022 0.011-0.009 0.004-0.017 0.009-0.026 0.013-0.009 0.003-0.02 0.005-0.033 0.007-0.012 0.003-0.025 0.006-0.039 0.009v0h-0.34c-0.455 0-0.683-0.014-0.684-0.042v0c-0.028 0-0.07 0.001-0.126 0.005-0.057 0.003-0.1 0.004-0.129 0.004v0h-0.426c-0.081 0-0.198 0.002-0.349 0.007-0.151 0.003-0.269 0.004-0.353 0.004v0h-0.299l-0.214-0.149v-1.15c0.004-0.207 0.02-0.647 0.046-1.322 0.026-0.675 0.039-1.208 0.039-1.598v0-0.14c0-0.028 0.002-0.072 0.006-0.133 0.003-0.06 0.004-0.104 0.005-0.133v0c0-0.032-0.001-0.097-0.005-0.194-0.004-0.097-0.007-0.161-0.006-0.19v0h-1.331c-0.079 0-0.154-0.013-0.225-0.039-0.07-0.026-0.105-0.07-0.105-0.131z" fill="#ffffff" fill-rule="nonzero" stroke="none" stroke-width="1" stroke-linecap="butt" stroke-linejoin="miter" stroke-miterlimit="10" stroke-dasharray="" stroke-dashoffset="0" font-family="none" font-weight="none" font-size="none" text-anchor="none" style="mix-blend-mode: normal" data-fill-palette-color="secondary"></path></g></g><g transform="matrix(1,0,0,1,24.80939029431056,41.10297821044922)"><svg viewBox="0 0 267.6308837180195 173.04" height="173.04" width="267.6308837180195"><g><svg viewBox="0 0 268.9690381366096 173.90519999999998" height="173.04" width="267.6308837180195"><g><rect width="15.60492577728" height="173.90519999999998" x="106.41776712938547" y="0" fill="#ffffff" opacity="1" stroke-width="0" stroke="transparent" fill-opacity="1" class="rect-o-0" data-fill-palette-color="primary" rx="1%" id="o-0" data-palette-color="#ffffff"></rect></g><g transform="matrix(1,0,0,1,162.87328394666548,0.43259999999999366)"><svg viewBox="0 0 106.09575418994413 173.04" height="173.04" width="106.09575418994413"><g id="textblocktransform"><svg viewBox="0 0 106.09575418994413 173.04" height="173.04" width="106.09575418994413" id="textblock"><g><svg viewBox="0 0 106.09575418994413 173.04" height="173.04" width="106.09575418994413"><g transform="matrix(1,0,0,1,0,0)"><svg width="106.09575418994413" viewBox="2.75 -35.5 21.950000762939453 35.79999923706055" height="173.04" data-palette-color="#ffffff"><path d="M22.15-33.75L22.15-33.75 21.35-30.4 18.45-31.25Q15.35-32 13.1-32L13.1-32Q7.2-32 7.2-26.75L7.2-26.75Q7.2-24.45 9-22.98 10.8-21.5 13.38-20.63 15.95-19.75 18.53-18.73 21.1-17.7 22.9-15.58 24.7-13.45 24.7-10.2L24.7-10.2Q24.7-5.25 21.65-2.48 18.6 0.3 13 0.3L13 0.3Q10.2 0.3 7.38-0.53 4.55-1.35 2.75-2.45L2.75-2.45 4-5.3Q8.55-3.2 12.63-3.2 16.7-3.2 18.82-4.85 20.95-6.5 20.95-9.65L20.95-9.65Q20.95-12.85 17.5-14.65L17.5-14.65Q15.95-15.45 14.08-16.15 12.2-16.85 10.33-17.68 8.45-18.5 6.93-19.55 5.4-20.6 4.42-22.4 3.45-24.2 3.45-26.6L3.45-26.6Q3.45-30.9 6.03-33.2 8.6-35.5 12.95-35.5 17.3-35.5 22.15-33.75Z" opacity="1" transform="matrix(1,0,0,1,0,0)" fill="#ffffff" class="wordmark-text-0" data-fill-palette-color="primary" id="text-0"></path></svg></g></svg></g></svg></g></svg></g><g transform="matrix(1,0,0,1,0,47.69384583695495)"><svg viewBox="0 0 65.56717608938547 78.51750832609008" height="78.51750832609008" width="65.56717608938547"><g><svg xmlns="http://www.w3.org/2000/svg" xmlns:xlink="http://www.w3.org/1999/xlink" version="1.1" x="0" y="0" viewBox="10.402000427246094 2.5820000171661377 79.19500732421875 94.83700561523438" enable-background="new 0 0 100 100" xml:space="preserve" height="78.51750832609008" width="65.56717608938547" class="icon-icon-0" data-fill-palette-color="accent" id="icon-0"><path d="M53.29 59.879c7-11.8 21.489-13.281 21.489-13.281-12.437 6.529-17.837 14.818-18.605 19.902 31.911 5.197 33.423-27.97 33.423-27.97C59.327 33.139 54.48 52.568 53.29 59.879zM39.71 37.597c0 0 0.245-10.657-7.496-17.334 0 0 8.457 3.567 12.003 12.507 0.361-5.378-0.366-19.526-22.712-20.689C21.503 12.081 19.293 34.743 39.71 37.597zM53.711 85.054C51.288 76.99 43.323 43.12 65.504 2.582c0 0-31.401 32.871-22.683 82.522-18.401 0.496-32.419 3.043-32.419 6.113 0 3.425 17.446 6.202 38.966 6.202 21.52 0 38.966-2.777 38.966-6.202C88.335 88.025 73.187 85.398 53.711 85.054z" fill="#ffffff" data-fill-palette-color="accent"></path></svg></g></svg></g></svg></g></svg></g></svg></g><defs></defs></svg><rect width="317.2496643066406" height="255.24595642089844" fill="none" stroke="none" visibility="hidden"></rect></g></svg></g></svg>